<svg width="7074" height="1760" viewBox="0 0 7074 1760" fill="none" xmlns="http://www.w3.org/2000/svg">
<path d="M52.674 808V201.953H295.33C339.915 201.953 377.103 208.562 406.892 221.78C436.681 234.997 459.073 253.345 474.066 276.821C489.059 300.1 496.556 326.93 496.556 357.312C496.556 380.985 491.821 401.799 482.352 419.751C472.882 437.506 459.862 452.105 443.29 463.547C426.916 474.792 408.174 482.782 387.065 487.517V493.436C410.147 494.422 431.749 500.932 451.872 512.966C472.192 525 488.665 541.868 501.291 563.569C513.917 585.073 520.23 610.719 520.23 640.508C520.23 672.665 512.24 701.37 496.26 726.622C480.478 751.676 457.1 771.503 426.127 786.102C395.154 800.701 356.98 808 311.605 808H52.674ZM180.808 703.244H285.268C320.976 703.244 347.017 696.438 363.392 682.825C379.766 669.016 387.953 650.668 387.953 627.784C387.953 611.015 383.909 596.219 375.82 583.396C367.732 570.572 356.191 560.511 341.197 553.212C326.401 545.912 308.745 542.263 288.227 542.263H180.808V703.244ZM180.808 455.558H275.799C293.357 455.558 308.942 452.5 322.554 446.384C336.364 440.071 347.214 431.193 355.106 419.751C363.194 408.309 367.239 394.598 367.239 378.618C367.239 356.72 359.446 339.063 343.861 325.648C328.473 312.233 306.575 305.525 278.166 305.525H180.808V455.558ZM727.301 201.953V808H601.238V201.953H727.301ZM957.898 816.582C928.897 816.582 903.054 811.551 880.366 801.49C857.679 791.231 839.726 776.139 826.509 756.214C813.488 736.091 806.978 711.036 806.978 681.05C806.978 655.798 811.614 634.59 820.886 617.427C830.158 600.263 842.784 586.453 858.764 575.998C874.744 565.542 892.894 557.65 913.214 552.324C933.731 546.997 955.234 543.249 977.724 541.079C1004.16 538.317 1025.47 535.752 1041.64 533.385C1057.82 530.82 1069.56 527.072 1076.86 522.14C1084.16 517.208 1087.81 509.908 1087.81 500.242V498.466C1087.81 479.724 1081.89 465.224 1070.05 454.966C1058.41 444.707 1041.84 439.578 1020.34 439.578C997.65 439.578 979.599 444.608 966.183 454.67C952.768 464.534 943.891 476.963 939.551 491.956L822.957 482.486C828.876 454.867 840.515 430.996 857.876 410.873C875.237 390.553 897.628 374.968 925.05 364.118C952.67 353.07 984.629 347.546 1020.93 347.546C1046.18 347.546 1070.35 350.505 1093.43 356.424C1116.71 362.342 1137.32 371.516 1155.28 383.945C1173.43 396.373 1187.73 412.353 1198.19 431.884C1208.64 451.217 1213.87 474.398 1213.87 501.425V808H1094.32V744.969H1090.77C1083.47 759.173 1073.7 771.7 1061.47 782.551C1049.24 793.204 1034.54 801.588 1017.38 807.704C1000.21 813.623 980.388 816.582 957.898 816.582ZM994 729.581C1012.54 729.581 1028.92 725.931 1043.12 718.632C1057.33 711.135 1068.47 701.074 1076.56 688.448C1084.65 675.822 1088.69 661.519 1088.69 645.539V597.304C1084.75 599.869 1079.32 602.236 1072.42 604.406C1065.71 606.379 1058.12 608.253 1049.63 610.029C1041.15 611.607 1032.67 613.086 1024.18 614.467C1015.7 615.651 1008.01 616.736 1001.1 617.723C986.306 619.893 973.384 623.345 962.336 628.08C951.289 632.815 942.707 639.226 936.591 647.315C930.476 655.206 927.418 665.07 927.418 676.907C927.418 694.07 933.632 707.189 946.061 716.264C958.687 725.142 974.667 729.581 994 729.581ZM1517.04 816.878C1470.48 816.878 1430.43 807.014 1396.9 787.285C1363.56 767.36 1337.91 739.741 1319.96 704.427C1302.2 669.114 1293.32 628.474 1293.32 582.508C1293.32 535.95 1302.3 495.112 1320.25 459.996C1338.4 424.683 1364.15 397.162 1397.49 377.434C1430.83 357.509 1470.48 347.546 1516.45 347.546C1556.1 347.546 1590.82 354.747 1620.61 369.148C1650.4 383.55 1673.98 403.771 1691.34 429.812C1708.7 455.853 1718.27 486.432 1720.04 521.548H1601.08C1597.73 498.861 1588.85 480.612 1574.45 466.803C1560.25 452.796 1541.6 445.792 1518.52 445.792C1498.99 445.792 1481.93 451.119 1467.33 461.772C1452.92 472.228 1441.68 487.517 1433.59 507.64C1425.5 527.762 1421.46 552.127 1421.46 580.732C1421.46 609.733 1425.4 634.393 1433.3 654.713C1441.38 675.033 1452.73 690.519 1467.33 701.172C1481.93 711.826 1498.99 717.152 1518.52 717.152C1532.92 717.152 1545.84 714.193 1557.29 708.274C1568.93 702.356 1578.49 693.774 1585.99 682.529C1593.68 671.087 1598.72 657.376 1601.08 641.396H1720.04C1718.07 676.118 1708.6 706.696 1691.63 733.132C1674.87 759.37 1651.69 779.887 1622.09 794.684C1592.5 809.48 1557.48 816.878 1517.04 816.878ZM1914.98 677.203L1915.28 525.987H1933.62L2079.22 353.465H2223.92L2028.32 581.916H1998.43L1914.98 677.203ZM1800.76 808V201.953H1926.82V808H1800.76ZM2084.84 808L1951.08 610.029L2035.13 520.956L2232.51 808H2084.84ZM2217.86 307.597V201.953H2715.6V307.597H2530.05V808H2403.4V307.597H2217.86ZM2862.97 816.582C2833.97 816.582 2808.12 811.551 2785.43 801.49C2762.75 791.231 2744.79 776.139 2731.58 756.214C2718.56 736.091 2712.05 711.036 2712.05 681.05C2712.05 655.798 2716.68 634.59 2725.95 617.427C2735.23 600.263 2747.85 586.453 2763.83 575.998C2779.81 565.542 2797.96 557.65 2818.28 552.324C2838.8 546.997 2860.3 543.249 2882.79 541.079C2909.23 538.317 2930.53 535.752 2946.71 533.385C2962.89 530.82 2974.63 527.072 2981.93 522.14C2989.23 517.208 2992.88 509.908 2992.88 500.242V498.466C2992.88 479.724 2986.96 465.224 2975.12 454.966C2963.48 444.707 2946.91 439.578 2925.41 439.578C2902.72 439.578 2884.67 444.608 2871.25 454.67C2857.84 464.534 2848.96 476.963 2844.62 491.956L2728.03 482.486C2733.94 454.867 2745.58 430.996 2762.94 410.873C2780.31 390.553 2802.7 374.968 2830.12 364.118C2857.74 353.07 2889.7 347.546 2926 347.546C2951.25 347.546 2975.42 350.505 2998.5 356.424C3021.78 362.342 3042.39 371.516 3060.35 383.945C3078.5 396.373 3092.8 412.353 3103.25 431.884C3113.71 451.217 3118.94 474.398 3118.94 501.425V808H2999.39V744.969H2995.83C2988.54 759.173 2978.77 771.7 2966.54 782.551C2954.31 793.204 2939.61 801.588 2922.45 807.704C2905.28 813.623 2885.46 816.582 2862.97 816.582ZM2899.07 729.581C2917.61 729.581 2933.99 725.931 2948.19 718.632C2962.4 711.135 2973.54 701.074 2981.63 688.448C2989.72 675.822 2993.76 661.519 2993.76 645.539V597.304C2989.82 599.869 2984.39 602.236 2977.49 604.406C2970.78 606.379 2963.18 608.253 2954.7 610.029C2946.22 611.607 2937.74 613.086 2929.25 614.467C2920.77 615.651 2913.08 616.736 2906.17 617.723C2891.37 619.893 2878.45 623.345 2867.4 628.08C2856.36 632.815 2847.78 639.226 2841.66 647.315C2835.54 655.206 2832.49 665.07 2832.49 676.907C2832.49 694.07 2838.7 707.189 2851.13 716.264C2863.76 725.142 2879.73 729.581 2899.07 729.581ZM3421.52 987.92C3380.68 987.92 3345.66 982.298 3316.47 971.053C3287.47 960.005 3264.38 944.913 3247.22 925.777C3230.06 906.64 3218.91 885.137 3213.78 861.266L3330.37 845.582C3333.92 854.657 3339.55 863.14 3347.24 871.031C3354.94 878.923 3365.1 885.235 3377.72 889.97C3390.54 894.902 3406.13 897.368 3424.48 897.368C3451.9 897.368 3474.49 890.661 3492.24 877.246C3510.2 864.028 3519.17 841.834 3519.17 810.663V727.509H3513.85C3508.32 740.135 3500.04 752.071 3488.99 763.316C3477.94 774.561 3463.74 783.734 3446.38 790.837C3429.01 797.939 3408.3 801.49 3384.23 801.49C3350.1 801.49 3319.03 793.598 3291.02 777.816C3263.2 761.836 3241.01 737.472 3224.43 704.723C3208.06 671.777 3199.87 630.151 3199.87 579.845C3199.87 528.354 3208.26 485.347 3225.03 450.823C3241.79 416.299 3264.09 390.455 3291.9 373.291C3319.92 356.128 3350.6 347.546 3383.94 347.546C3409.38 347.546 3430.69 351.886 3447.85 360.567C3465.02 369.05 3478.83 379.703 3489.28 392.526C3499.94 405.152 3508.12 417.581 3513.85 429.812H3518.58V353.465H3643.75V812.439C3643.75 851.106 3634.29 883.46 3615.35 909.501C3596.41 935.542 3570.17 955.073 3536.63 968.094C3503.29 981.311 3464.92 987.92 3421.52 987.92ZM3424.18 706.795C3444.5 706.795 3461.66 701.764 3475.67 691.703C3489.88 681.444 3500.73 666.845 3508.22 647.906C3515.92 628.77 3519.76 605.886 3519.76 579.253C3519.76 552.62 3516.02 529.538 3508.52 510.007C3501.02 490.279 3490.17 474.99 3475.97 464.139C3461.76 453.289 3444.5 447.864 3424.18 447.864C3403.47 447.864 3386.01 453.486 3371.8 464.731C3357.6 475.779 3346.85 491.167 3339.55 510.895C3332.25 530.623 3328.6 553.409 3328.6 579.253C3328.6 605.491 3332.25 628.178 3339.55 647.315C3347.04 666.254 3357.8 680.951 3371.8 691.407C3386.01 701.666 3403.47 706.795 3424.18 706.795ZM3961.28 808H3746.44V201.953H3963.05C4024.01 201.953 4076.49 214.086 4120.48 238.351C4164.48 262.419 4198.31 297.042 4221.98 342.22C4245.86 387.397 4257.79 441.452 4257.79 504.385C4257.79 567.515 4245.86 621.767 4221.98 667.141C4198.31 712.516 4164.28 747.336 4119.89 771.602C4075.7 795.867 4022.83 808 3961.28 808ZM3874.57 698.213H3955.95C3993.83 698.213 4025.69 691.506 4051.53 678.09C4077.58 664.478 4097.11 643.468 4110.13 615.059C4123.34 586.453 4129.95 549.562 4129.95 504.385C4129.95 459.602 4123.34 423.006 4110.13 394.598C4097.11 366.189 4077.67 345.278 4051.83 331.862C4025.99 318.447 3994.13 311.74 3956.25 311.74H3874.57V698.213ZM4557.49 816.878C4510.73 816.878 4470.48 807.408 4436.75 788.469C4403.21 769.333 4377.37 742.305 4359.22 707.387C4341.07 672.271 4331.99 630.743 4331.99 582.804C4331.99 536.048 4341.07 495.014 4359.22 459.7C4377.37 424.387 4402.92 396.866 4435.86 377.138C4469.01 357.41 4507.87 347.546 4552.46 347.546C4582.44 347.546 4610.36 352.38 4636.2 362.046C4662.24 371.516 4684.93 385.819 4704.26 404.955C4723.79 424.091 4738.98 448.16 4749.83 477.16C4760.69 505.963 4766.11 539.698 4766.11 578.365V612.988H4382.3V534.865H4647.45C4647.45 516.715 4643.5 500.636 4635.61 486.629C4627.72 472.622 4616.77 461.673 4602.76 453.782C4588.95 445.694 4572.87 441.649 4554.53 441.649C4535.39 441.649 4518.42 446.088 4503.63 454.966C4489.03 463.646 4477.59 475.384 4469.3 490.18C4461.02 504.779 4456.77 521.055 4456.58 539.007V613.284C4456.58 635.774 4460.72 655.206 4469.01 671.58C4477.49 687.955 4489.42 700.581 4504.81 709.458C4520.2 718.336 4538.45 722.775 4559.56 722.775C4573.56 722.775 4586.39 720.802 4598.03 716.856C4609.67 712.911 4619.63 706.992 4627.92 699.101C4636.2 691.21 4642.51 681.543 4646.85 670.101L4763.45 677.795C4757.53 705.808 4745.4 730.271 4727.05 751.183C4708.9 771.898 4685.42 788.075 4656.62 799.714C4628.01 811.156 4594.97 816.878 4557.49 816.878ZM5259.93 353.465L5101.02 808H4958.98L4800.07 353.465H4933.23L5027.63 678.682H5032.37L5126.47 353.465H5259.93ZM5702.63 483.078L5587.22 490.18C5585.25 480.316 5581 471.439 5574.49 463.547C5567.98 455.459 5559.4 449.047 5548.75 444.313C5538.29 439.381 5525.77 436.915 5511.17 436.915C5491.64 436.915 5475.16 441.057 5461.75 449.343C5448.33 457.432 5441.63 468.282 5441.63 481.895C5441.63 492.745 5445.97 501.919 5454.65 509.415C5463.33 516.912 5478.22 522.929 5499.33 527.466L5581.6 544.038C5625.79 553.113 5658.73 567.712 5680.43 587.834C5702.13 607.957 5712.99 634.393 5712.99 667.141C5712.99 696.931 5704.21 723.071 5686.65 745.561C5669.29 768.051 5645.42 785.609 5615.04 798.235C5584.85 810.663 5550.03 816.878 5510.58 816.878C5450.4 816.878 5402.47 804.35 5366.76 779.296C5331.25 754.044 5310.43 719.717 5304.32 676.315L5428.31 669.805C5432.06 688.152 5441.13 702.159 5455.53 711.826C5469.94 721.295 5488.38 726.03 5510.87 726.03C5532.97 726.03 5550.72 721.788 5564.14 713.305C5577.75 704.625 5584.65 693.478 5584.85 679.866C5584.65 668.424 5579.82 659.053 5570.35 651.753C5560.88 644.257 5546.28 638.536 5526.55 634.59L5447.84 618.906C5403.45 610.029 5370.41 594.641 5348.71 572.742C5327.2 550.844 5316.45 522.929 5316.45 488.997C5316.45 459.799 5324.34 434.646 5340.12 413.537C5356.1 392.428 5378.5 376.152 5407.3 364.71C5436.3 353.267 5470.23 347.546 5509.1 347.546C5566.5 347.546 5611.68 359.679 5644.63 383.945C5677.77 408.21 5697.1 441.255 5702.63 483.078Z" fill="black"/>
<path d="M22.832 1107.88V1058.9H314.676V1107.88H197.018V1436H140.306V1107.88H22.832ZM445.257 1441.71C417.392 1441.71 393.394 1435.75 373.262 1423.85C353.254 1411.82 337.787 1394.94 326.862 1373.21C316.06 1351.36 310.659 1325.77 310.659 1296.43C310.659 1267.46 316.06 1241.93 326.862 1219.83C337.787 1197.74 353.008 1180.49 372.526 1168.09C392.166 1155.69 415.121 1149.5 441.39 1149.5C457.348 1149.5 472.815 1152.13 487.791 1157.41C502.766 1162.69 516.208 1170.98 528.115 1182.27C540.022 1193.56 549.412 1208.23 556.286 1226.28C563.161 1244.2 566.598 1265.99 566.598 1291.64V1311.16H341.776V1269.92H512.648C512.648 1255.43 509.702 1242.6 503.81 1231.43C497.918 1220.14 489.632 1211.24 478.952 1204.73C468.396 1198.23 455.998 1194.98 441.758 1194.98C426.291 1194.98 412.789 1198.78 401.25 1206.39C389.834 1213.88 380.996 1223.7 374.735 1235.85C368.598 1247.88 365.529 1260.95 365.529 1275.07V1307.29C365.529 1326.2 368.843 1342.28 375.472 1355.54C382.223 1368.79 391.614 1378.92 403.644 1385.92C415.673 1392.79 429.729 1396.23 445.809 1396.23C456.243 1396.23 465.756 1394.76 474.349 1391.81C482.942 1388.74 490.368 1384.2 496.629 1378.18C502.889 1372.17 507.676 1364.74 510.991 1355.9L563.099 1365.29C558.926 1380.64 551.438 1394.08 540.635 1405.62C529.956 1417.03 516.515 1425.93 500.311 1432.32C484.231 1438.58 465.879 1441.71 445.257 1441.71ZM736.444 1441.71C709.07 1441.71 685.501 1435.51 665.738 1423.11C646.098 1410.59 630.999 1393.34 620.442 1371.37C609.886 1349.4 604.607 1324.23 604.607 1295.88C604.607 1267.15 610.008 1241.81 620.811 1219.83C631.613 1197.74 646.834 1180.49 666.475 1168.09C686.115 1155.69 709.254 1149.5 735.891 1149.5C757.373 1149.5 776.522 1153.48 793.339 1161.46C810.157 1169.32 823.721 1180.37 834.032 1194.61C844.466 1208.85 850.665 1225.48 852.629 1244.51H799.047C796.101 1231.25 789.35 1219.83 778.793 1210.26C768.359 1200.68 754.366 1195.9 736.812 1195.9C721.468 1195.9 708.026 1199.95 696.488 1208.05C685.072 1216.03 676.172 1227.44 669.789 1242.3C663.406 1257.03 660.214 1274.46 660.214 1294.59C660.214 1315.21 663.344 1333.01 669.605 1347.99C675.865 1362.96 684.703 1374.56 696.119 1382.79C707.658 1391.01 721.222 1395.12 736.812 1395.12C747.246 1395.12 756.698 1393.22 765.168 1389.42C773.76 1385.49 780.941 1379.9 786.711 1372.66C792.603 1365.42 796.715 1356.7 799.047 1346.51H852.629C850.665 1364.8 844.711 1381.13 834.768 1395.49C824.826 1409.85 811.507 1421.15 794.813 1429.37C778.241 1437.6 758.785 1441.71 736.444 1441.71ZM956.189 1268.07V1436H901.134V1058.9H955.452V1199.21H958.951C965.579 1183.99 975.706 1171.9 989.332 1162.94C1002.96 1153.98 1020.76 1149.5 1042.73 1149.5C1062.12 1149.5 1079.06 1153.48 1093.55 1161.46C1108.16 1169.44 1119.45 1181.35 1127.43 1197.18C1135.53 1212.9 1139.58 1232.54 1139.58 1256.11V1436H1084.53V1262.73C1084.53 1241.99 1079.19 1225.91 1068.51 1214.49C1057.83 1202.95 1042.97 1197.18 1023.95 1197.18C1010.94 1197.18 999.275 1199.95 988.964 1205.47C978.775 1210.99 970.735 1219.1 964.843 1229.78C959.073 1240.33 956.189 1253.1 956.189 1268.07ZM1257.73 1268.07V1436H1202.68V1153.18H1255.52V1199.21H1259.02C1265.53 1184.23 1275.72 1172.2 1289.59 1163.12C1303.58 1154.04 1321.2 1149.5 1342.43 1149.5C1361.7 1149.5 1378.58 1153.55 1393.07 1161.65C1407.55 1169.63 1418.78 1181.53 1426.76 1197.37C1434.74 1213.2 1438.73 1232.78 1438.73 1256.11V1436H1383.68V1262.73C1383.68 1242.24 1378.34 1226.22 1367.66 1214.68C1356.98 1203.02 1342.31 1197.18 1323.65 1197.18C1310.88 1197.18 1299.53 1199.95 1289.59 1205.47C1279.77 1210.99 1271.97 1219.1 1266.2 1229.78C1260.56 1240.33 1257.73 1253.1 1257.73 1268.07ZM1502.2 1436V1153.18H1557.25V1436H1502.2ZM1530 1109.54C1520.43 1109.54 1512.2 1106.35 1505.33 1099.96C1498.58 1093.46 1495.2 1085.73 1495.2 1076.76C1495.2 1067.68 1498.58 1059.95 1505.33 1053.56C1512.2 1047.06 1520.43 1043.81 1530 1043.81C1539.58 1043.81 1547.74 1047.06 1554.49 1053.56C1561.36 1059.95 1564.8 1067.68 1564.8 1076.76C1564.8 1085.73 1561.36 1093.46 1554.49 1099.96C1547.74 1106.35 1539.58 1109.54 1530 1109.54ZM1740.08 1441.71C1712.7 1441.71 1689.14 1435.51 1669.37 1423.11C1649.73 1410.59 1634.63 1393.34 1624.08 1371.37C1613.52 1349.4 1608.24 1324.23 1608.24 1295.88C1608.24 1267.15 1613.64 1241.81 1624.45 1219.83C1635.25 1197.74 1650.47 1180.49 1670.11 1168.09C1689.75 1155.69 1712.89 1149.5 1739.53 1149.5C1761.01 1149.5 1780.16 1153.48 1796.97 1161.46C1813.79 1169.32 1827.36 1180.37 1837.67 1194.61C1848.1 1208.85 1854.3 1225.48 1856.26 1244.51H1802.68C1799.74 1231.25 1792.98 1219.83 1782.43 1210.26C1771.99 1200.68 1758 1195.9 1740.45 1195.9C1725.1 1195.9 1711.66 1199.95 1700.12 1208.05C1688.71 1216.03 1679.81 1227.44 1673.42 1242.3C1667.04 1257.03 1663.85 1274.46 1663.85 1294.59C1663.85 1315.21 1666.98 1333.01 1673.24 1347.99C1679.5 1362.96 1688.34 1374.56 1699.75 1382.79C1711.29 1391.01 1724.86 1395.12 1740.45 1395.12C1750.88 1395.12 1760.33 1393.22 1768.8 1389.42C1777.4 1385.49 1784.58 1379.9 1790.35 1372.66C1796.24 1365.42 1800.35 1356.7 1802.68 1346.51H1856.26C1854.3 1364.8 1848.35 1381.13 1838.4 1395.49C1828.46 1409.85 1815.14 1421.15 1798.45 1429.37C1781.88 1437.6 1762.42 1441.71 1740.08 1441.71ZM1987.07 1442.26C1969.15 1442.26 1952.95 1438.95 1938.46 1432.32C1923.98 1425.57 1912.5 1415.81 1904.03 1403.04C1895.69 1390.27 1891.51 1374.62 1891.51 1356.09C1891.51 1340.13 1894.58 1327 1900.72 1316.68C1906.86 1306.37 1915.14 1298.21 1925.58 1292.2C1936.01 1286.18 1947.67 1281.64 1960.56 1278.57C1973.45 1275.5 1986.58 1273.17 1999.96 1271.57C2016.9 1269.61 2030.65 1268.01 2041.21 1266.79C2051.77 1265.44 2059.44 1263.29 2064.22 1260.34C2069.01 1257.39 2071.41 1252.61 2071.41 1245.98V1244.69C2071.41 1228.61 2066.86 1216.15 2057.78 1207.31C2048.82 1198.47 2035.44 1194.05 2017.64 1194.05C1999.1 1194.05 1984.5 1198.17 1973.82 1206.39C1963.26 1214.49 1955.96 1223.52 1951.91 1233.46L1900.17 1221.67C1906.3 1204.49 1915.26 1190.62 1927.05 1180.06C1938.96 1169.38 1952.64 1161.65 1968.11 1156.86C1983.58 1151.95 1999.84 1149.5 2016.9 1149.5C2028.2 1149.5 2040.17 1150.85 2052.81 1153.55C2065.57 1156.12 2077.48 1160.91 2088.53 1167.91C2099.7 1174.91 2108.85 1184.91 2115.96 1197.92C2123.08 1210.81 2126.64 1227.57 2126.64 1248.19V1436H2072.88V1397.33H2070.67C2067.11 1404.45 2061.77 1411.45 2054.65 1418.32C2047.53 1425.2 2038.39 1430.91 2027.21 1435.45C2016.04 1439.99 2002.66 1442.26 1987.07 1442.26ZM1999.04 1398.07C2014.26 1398.07 2027.28 1395.06 2038.08 1389.05C2049 1383.03 2057.29 1375.18 2062.94 1365.48C2068.71 1355.66 2071.59 1345.16 2071.59 1333.99V1297.54C2069.63 1299.5 2065.82 1301.34 2060.17 1303.06C2054.65 1304.65 2048.33 1306.07 2041.21 1307.29C2034.09 1308.4 2027.15 1309.44 2020.4 1310.42C2013.65 1311.28 2008 1312.02 2003.46 1312.63C1992.78 1313.98 1983.02 1316.25 1974.19 1319.45C1965.47 1322.64 1958.47 1327.24 1953.19 1333.26C1948.04 1339.15 1945.46 1347 1945.46 1356.82C1945.46 1370.45 1950.49 1380.76 1960.56 1387.76C1970.63 1394.63 1983.45 1398.07 1999.04 1398.07ZM2244.66 1058.9V1436H2189.6V1058.9H2244.66ZM2496.52 1058.9V1436H2439.62V1058.9H2496.52ZM2619.64 1268.07V1436H2564.59V1153.18H2617.43V1199.21H2620.93C2627.44 1184.23 2637.63 1172.2 2651.5 1163.12C2665.49 1154.04 2683.11 1149.5 2704.34 1149.5C2723.62 1149.5 2740.49 1153.55 2754.98 1161.65C2769.46 1169.63 2780.7 1181.53 2788.67 1197.37C2796.65 1213.2 2800.64 1232.78 2800.64 1256.11V1436H2745.59V1262.73C2745.59 1242.24 2740.25 1226.22 2729.57 1214.68C2718.89 1203.02 2704.22 1197.18 2685.56 1197.18C2672.8 1197.18 2661.44 1199.95 2651.5 1205.47C2641.68 1210.99 2633.88 1219.1 2628.11 1229.78C2622.47 1240.33 2619.64 1253.1 2619.64 1268.07ZM2919.16 1268.07V1436H2864.11V1153.18H2916.95V1199.21H2920.45C2926.96 1184.23 2937.15 1172.2 2951.02 1163.12C2965.01 1154.04 2982.63 1149.5 3003.86 1149.5C3023.13 1149.5 3040.01 1153.55 3054.5 1161.65C3068.98 1169.63 3080.21 1181.53 3088.19 1197.37C3096.17 1213.2 3100.16 1232.78 3100.16 1256.11V1436H3045.11V1262.73C3045.11 1242.24 3039.77 1226.22 3029.09 1214.68C3018.41 1203.02 3003.74 1197.18 2985.08 1197.18C2972.31 1197.18 2960.96 1199.95 2951.02 1205.47C2941.2 1210.99 2933.4 1219.1 2927.63 1229.78C2921.99 1240.33 2919.16 1253.1 2919.16 1268.07ZM3282.76 1441.71C3256.24 1441.71 3233.1 1435.63 3213.34 1423.48C3193.58 1411.33 3178.23 1394.33 3167.31 1372.48C3156.38 1350.63 3150.92 1325.09 3150.92 1295.88C3150.92 1266.54 3156.38 1240.88 3167.31 1218.91C3178.23 1196.94 3193.58 1179.88 3213.34 1167.72C3233.1 1155.57 3256.24 1149.5 3282.76 1149.5C3309.27 1149.5 3332.41 1155.57 3352.17 1167.72C3371.94 1179.88 3387.28 1196.94 3398.21 1218.91C3409.13 1240.88 3414.59 1266.54 3414.59 1295.88C3414.59 1325.09 3409.13 1350.63 3398.21 1372.48C3387.28 1394.33 3371.94 1411.33 3352.17 1423.48C3332.41 1435.63 3309.27 1441.71 3282.76 1441.71ZM3282.94 1395.49C3300.13 1395.49 3314.37 1390.95 3325.66 1381.87C3336.95 1372.78 3345.3 1360.69 3350.7 1345.59C3356.23 1330.49 3358.99 1313.86 3358.99 1295.69C3358.99 1277.65 3356.23 1261.08 3350.7 1245.98C3345.3 1230.76 3336.95 1218.54 3325.66 1209.34C3314.37 1200.13 3300.13 1195.53 3282.94 1195.53C3265.63 1195.53 3251.27 1200.13 3239.86 1209.34C3228.56 1218.54 3220.15 1230.76 3214.63 1245.98C3209.23 1261.08 3206.53 1277.65 3206.53 1295.69C3206.53 1313.86 3209.23 1330.49 3214.63 1345.59C3220.15 1360.69 3228.56 1372.78 3239.86 1381.87C3251.27 1390.95 3265.63 1395.49 3282.94 1395.49ZM3698 1153.18L3595.44 1436H3536.52L3433.78 1153.18H3492.88L3564.51 1370.82H3567.45L3638.9 1153.18H3698ZM3813.58 1442.26C3795.65 1442.26 3779.45 1438.95 3764.97 1432.32C3750.48 1425.57 3739 1415.81 3730.53 1403.04C3722.19 1390.27 3718.01 1374.62 3718.01 1356.09C3718.01 1340.13 3721.08 1327 3727.22 1316.68C3733.36 1306.37 3741.64 1298.21 3752.08 1292.2C3762.51 1286.18 3774.17 1281.64 3787.06 1278.57C3799.95 1275.5 3813.08 1273.17 3826.46 1271.57C3843.4 1269.61 3857.15 1268.01 3867.71 1266.79C3878.27 1265.44 3885.94 1263.29 3890.73 1260.34C3895.51 1257.39 3897.91 1252.61 3897.91 1245.98V1244.69C3897.91 1228.61 3893.36 1216.15 3884.28 1207.31C3875.32 1198.47 3861.94 1194.05 3844.14 1194.05C3825.61 1194.05 3811 1198.17 3800.32 1206.39C3789.76 1214.49 3782.46 1223.52 3778.41 1233.46L3726.67 1221.67C3732.8 1204.49 3741.77 1190.62 3753.55 1180.06C3765.46 1169.38 3779.14 1161.65 3794.61 1156.86C3810.08 1151.95 3826.34 1149.5 3843.4 1149.5C3854.7 1149.5 3866.67 1150.85 3879.31 1153.55C3892.08 1156.12 3903.98 1160.91 3915.03 1167.91C3926.2 1174.91 3935.35 1184.91 3942.47 1197.92C3949.59 1210.81 3953.15 1227.57 3953.15 1248.19V1436H3899.38V1397.33H3897.17C3893.61 1404.45 3888.27 1411.45 3881.15 1418.32C3874.03 1425.2 3864.89 1430.91 3853.72 1435.45C3842.55 1439.99 3829.17 1442.26 3813.58 1442.26ZM3825.54 1398.07C3840.77 1398.07 3853.78 1395.06 3864.58 1389.05C3875.5 1383.03 3883.79 1375.18 3889.44 1365.48C3895.21 1355.66 3898.09 1345.16 3898.09 1333.99V1297.54C3896.13 1299.5 3892.32 1301.34 3886.67 1303.06C3881.15 1304.65 3874.83 1306.07 3867.71 1307.29C3860.59 1308.4 3853.65 1309.44 3846.9 1310.42C3840.15 1311.28 3834.51 1312.02 3829.96 1312.63C3819.28 1313.98 3809.52 1316.25 3800.69 1319.45C3791.97 1322.64 3784.97 1327.24 3779.7 1333.26C3774.54 1339.15 3771.96 1347 3771.96 1356.82C3771.96 1370.45 3777 1380.76 3787.06 1387.76C3797.13 1394.63 3809.95 1398.07 3825.54 1398.07ZM4148.13 1153.18V1197.37H3993.64V1153.18H4148.13ZM4035.07 1085.42H4090.12V1352.96C4090.12 1363.64 4091.72 1371.68 4094.91 1377.08C4098.1 1382.36 4102.22 1385.98 4107.25 1387.94C4112.4 1389.78 4117.99 1390.7 4124 1390.7C4128.42 1390.7 4132.29 1390.4 4135.6 1389.78C4138.92 1389.17 4141.5 1388.68 4143.34 1388.31L4153.28 1433.79C4150.09 1435.02 4145.55 1436.25 4139.66 1437.47C4133.76 1438.82 4126.4 1439.56 4117.56 1439.68C4103.07 1439.93 4089.57 1437.35 4077.05 1431.95C4064.53 1426.55 4054.4 1418.2 4046.67 1406.91C4038.94 1395.61 4035.07 1381.44 4035.07 1364.37V1085.42ZM4198.66 1436V1153.18H4253.71V1436H4198.66ZM4226.46 1109.54C4216.88 1109.54 4208.66 1106.35 4201.79 1099.96C4195.03 1093.46 4191.66 1085.73 4191.66 1076.76C4191.66 1067.68 4195.03 1059.95 4201.79 1053.56C4208.66 1047.06 4216.88 1043.81 4226.46 1043.81C4236.03 1043.81 4244.2 1047.06 4250.95 1053.56C4257.82 1059.95 4261.26 1067.68 4261.26 1076.76C4261.26 1085.73 4257.82 1093.46 4250.95 1099.96C4244.2 1106.35 4236.03 1109.54 4226.46 1109.54ZM4436.54 1441.71C4410.02 1441.71 4386.88 1435.63 4367.12 1423.48C4347.36 1411.33 4332.01 1394.33 4321.09 1372.48C4310.16 1350.63 4304.7 1325.09 4304.7 1295.88C4304.7 1266.54 4310.16 1240.88 4321.09 1218.91C4332.01 1196.94 4347.36 1179.88 4367.12 1167.72C4386.88 1155.57 4410.02 1149.5 4436.54 1149.5C4463.05 1149.5 4486.19 1155.57 4505.95 1167.72C4525.72 1179.88 4541.06 1196.94 4551.99 1218.91C4562.91 1240.88 4568.37 1266.54 4568.37 1295.88C4568.37 1325.09 4562.91 1350.63 4551.99 1372.48C4541.06 1394.33 4525.72 1411.33 4505.95 1423.48C4486.19 1435.63 4463.05 1441.71 4436.54 1441.71ZM4436.72 1395.49C4453.91 1395.49 4468.15 1390.95 4479.44 1381.87C4490.73 1372.78 4499.08 1360.69 4504.48 1345.59C4510 1330.49 4512.77 1313.86 4512.77 1295.69C4512.77 1277.65 4510 1261.08 4504.48 1245.98C4499.08 1230.76 4490.73 1218.54 4479.44 1209.34C4468.15 1200.13 4453.91 1195.53 4436.72 1195.53C4419.41 1195.53 4405.05 1200.13 4393.64 1209.34C4382.34 1218.54 4373.93 1230.76 4368.41 1245.98C4363.01 1261.08 4360.31 1277.65 4360.31 1295.69C4360.31 1313.86 4363.01 1330.49 4368.41 1345.59C4373.93 1360.69 4382.34 1372.78 4393.64 1381.87C4405.05 1390.95 4419.41 1395.49 4436.72 1395.49ZM4674.51 1268.07V1436H4619.46V1153.18H4672.3V1199.21H4675.8C4682.31 1184.23 4692.49 1172.2 4706.37 1163.12C4720.36 1154.04 4737.97 1149.5 4759.21 1149.5C4778.48 1149.5 4795.36 1153.55 4809.85 1161.65C4824.33 1169.63 4835.56 1181.53 4843.54 1197.37C4851.52 1213.2 4855.51 1232.78 4855.51 1256.11V1436H4800.45V1262.73C4800.45 1242.24 4795.12 1226.22 4784.44 1214.68C4773.76 1203.02 4759.09 1197.18 4740.43 1197.18C4727.66 1197.18 4716.31 1199.95 4706.37 1205.47C4696.54 1210.99 4688.75 1219.1 4682.98 1229.78C4677.33 1240.33 4674.51 1253.1 4674.51 1268.07ZM5255.92 1157.97C5253.95 1140.53 5245.85 1127.03 5231.61 1117.46C5217.37 1107.76 5199.45 1102.91 5177.85 1102.91C5162.38 1102.91 5149 1105.37 5137.71 1110.28C5126.41 1115.06 5117.64 1121.69 5111.38 1130.16C5105.24 1138.51 5102.17 1148.02 5102.17 1158.7C5102.17 1167.66 5104.26 1175.4 5108.43 1181.9C5112.73 1188.41 5118.31 1193.87 5125.19 1198.29C5132.18 1202.59 5139.67 1206.21 5147.65 1209.15C5155.63 1211.98 5163.3 1214.31 5170.67 1216.15L5207.49 1225.72C5219.52 1228.67 5231.86 1232.66 5244.5 1237.69C5257.15 1242.73 5268.87 1249.35 5279.67 1257.58C5290.47 1265.8 5299.19 1275.99 5305.82 1288.14C5312.57 1300.3 5315.94 1314.84 5315.94 1331.78C5315.94 1353.14 5310.42 1372.11 5299.37 1388.68C5288.45 1405.25 5272.55 1418.32 5251.68 1427.9C5230.94 1437.47 5205.84 1442.26 5176.37 1442.26C5148.14 1442.26 5123.71 1437.78 5103.09 1428.82C5082.47 1419.86 5066.33 1407.15 5054.67 1390.7C5043 1374.13 5036.56 1354.49 5035.33 1331.78H5092.41C5093.52 1345.41 5097.94 1356.76 5105.67 1365.85C5113.53 1374.81 5123.53 1381.5 5135.68 1385.92C5147.96 1390.21 5161.4 1392.36 5176.01 1392.36C5192.09 1392.36 5206.39 1389.85 5218.91 1384.81C5231.55 1379.66 5241.49 1372.54 5248.74 1363.45C5255.98 1354.25 5259.6 1343.51 5259.6 1331.23C5259.6 1320.06 5256.41 1310.92 5250.03 1303.8C5243.77 1296.68 5235.23 1290.78 5224.43 1286.12C5213.75 1281.45 5201.66 1277.34 5188.16 1273.78L5143.6 1261.63C5113.4 1253.41 5089.47 1241.31 5071.79 1225.36C5054.24 1209.4 5045.46 1188.29 5045.46 1162.02C5045.46 1140.29 5051.35 1121.32 5063.14 1105.12C5074.92 1088.92 5090.88 1076.33 5111.01 1067.37C5131.14 1058.29 5153.85 1053.75 5179.14 1053.75C5204.67 1053.75 5227.19 1058.23 5246.71 1067.19C5266.35 1076.15 5281.82 1088.49 5293.11 1104.2C5304.41 1119.79 5310.3 1137.71 5310.79 1157.97H5255.92ZM5501.17 1153.18V1197.37H5346.68V1153.18H5501.17ZM5388.11 1085.42H5443.16V1352.96C5443.16 1363.64 5444.76 1371.68 5447.95 1377.08C5451.14 1382.36 5455.26 1385.98 5460.29 1387.94C5465.44 1389.78 5471.03 1390.7 5477.04 1390.7C5481.46 1390.7 5485.33 1390.4 5488.64 1389.78C5491.96 1389.17 5494.54 1388.68 5496.38 1388.31L5506.32 1433.79C5503.13 1435.02 5498.59 1436.25 5492.7 1437.47C5486.8 1438.82 5479.44 1439.56 5470.6 1439.68C5456.11 1439.93 5442.61 1437.35 5430.09 1431.95C5417.57 1426.55 5407.44 1418.2 5399.71 1406.91C5391.98 1395.61 5388.11 1381.44 5388.11 1364.37V1085.42ZM5730.85 1318.71V1153.18H5786.09V1436H5731.96V1387.02H5729.01C5722.51 1402.12 5712.07 1414.7 5697.71 1424.77C5683.47 1434.71 5665.73 1439.68 5644.5 1439.68C5626.33 1439.68 5610.25 1435.69 5596.25 1427.71C5582.38 1419.61 5571.46 1407.64 5563.48 1391.81C5555.62 1375.97 5551.7 1356.39 5551.7 1333.07V1153.18H5606.75V1326.44C5606.75 1345.72 5612.09 1361.06 5622.77 1372.48C5633.45 1383.89 5647.32 1389.6 5664.38 1389.6C5674.69 1389.6 5684.94 1387.02 5695.13 1381.87C5705.44 1376.71 5713.97 1368.92 5720.73 1358.48C5727.6 1348.05 5730.98 1334.79 5730.85 1318.71ZM5955.57 1441.52C5932.74 1441.52 5912.36 1435.69 5894.44 1424.03C5876.64 1412.25 5862.65 1395.49 5852.46 1373.76C5842.39 1351.91 5837.36 1325.71 5837.36 1295.14C5837.36 1264.58 5842.45 1238.43 5852.64 1216.7C5862.95 1194.98 5877.07 1178.34 5894.99 1166.8C5912.91 1155.26 5933.23 1149.5 5955.94 1149.5C5973.49 1149.5 5987.61 1152.44 5998.29 1158.33C6009.09 1164.1 6017.44 1170.85 6023.33 1178.59C6029.34 1186.32 6034.01 1193.13 6037.32 1199.03H6040.64V1058.9H6095.69V1436H6041.93V1391.99H6037.32C6034.01 1398.01 6029.22 1404.88 6022.96 1412.62C6016.82 1420.35 6008.35 1427.1 5997.55 1432.87C5986.75 1438.64 5972.75 1441.52 5955.57 1441.52ZM5967.72 1394.57C5983.56 1394.57 5996.94 1390.4 6007.86 1382.05C6018.91 1373.58 6027.26 1361.86 6032.9 1346.88C6038.67 1331.91 6041.56 1314.47 6041.56 1294.59C6041.56 1274.95 6038.73 1257.76 6033.09 1243.03C6027.44 1228.3 6019.15 1216.83 6008.23 1208.6C5997.3 1200.38 5983.8 1196.26 5967.72 1196.26C5951.15 1196.26 5937.34 1200.56 5926.29 1209.15C5915.24 1217.75 5906.9 1229.47 5901.25 1244.32C5895.73 1259.17 5892.97 1275.93 5892.97 1294.59C5892.97 1313.49 5895.79 1330.49 5901.44 1345.59C5907.08 1360.69 5915.43 1372.66 5926.48 1381.5C5937.65 1390.21 5951.4 1394.57 5967.72 1394.57ZM6163.9 1436V1153.18H6218.95V1436H6163.9ZM6191.7 1109.54C6182.13 1109.54 6173.9 1106.35 6167.03 1099.96C6160.28 1093.46 6156.9 1085.73 6156.9 1076.76C6156.9 1067.68 6160.28 1059.95 6167.03 1053.56C6173.9 1047.06 6182.13 1043.81 6191.7 1043.81C6201.28 1043.81 6209.44 1047.06 6216.19 1053.56C6223.06 1059.95 6226.5 1067.68 6226.5 1076.76C6226.5 1085.73 6223.06 1093.46 6216.19 1099.96C6209.44 1106.35 6201.28 1109.54 6191.7 1109.54ZM6401.78 1441.71C6375.26 1441.71 6352.13 1435.63 6332.36 1423.48C6312.6 1411.33 6297.26 1394.33 6286.33 1372.48C6275.41 1350.63 6269.94 1325.09 6269.94 1295.88C6269.94 1266.54 6275.41 1240.88 6286.33 1218.91C6297.26 1196.94 6312.6 1179.88 6332.36 1167.72C6352.13 1155.57 6375.26 1149.5 6401.78 1149.5C6428.29 1149.5 6451.43 1155.57 6471.2 1167.72C6490.96 1179.88 6506.3 1196.94 6517.23 1218.91C6528.15 1240.88 6533.62 1266.54 6533.62 1295.88C6533.62 1325.09 6528.15 1350.63 6517.23 1372.48C6506.3 1394.33 6490.96 1411.33 6471.2 1423.48C6451.43 1435.63 6428.29 1441.71 6401.78 1441.71ZM6401.96 1395.49C6419.15 1395.49 6433.39 1390.95 6444.68 1381.87C6455.97 1372.78 6464.32 1360.69 6469.72 1345.59C6475.25 1330.49 6478.01 1313.86 6478.01 1295.69C6478.01 1277.65 6475.25 1261.08 6469.72 1245.98C6464.32 1230.76 6455.97 1218.54 6444.68 1209.34C6433.39 1200.13 6419.15 1195.53 6401.96 1195.53C6384.66 1195.53 6370.29 1200.13 6358.88 1209.34C6347.58 1218.54 6339.18 1230.76 6333.65 1245.98C6328.25 1261.08 6325.55 1277.65 6325.55 1295.69C6325.55 1313.86 6328.25 1330.49 6333.65 1345.59C6339.18 1360.69 6347.58 1372.78 6358.88 1381.87C6370.29 1390.95 6384.66 1395.49 6401.96 1395.49Z" fill="#717182"/>
<path fill-rule="evenodd" clip-rule="evenodd" d="M5884.6 467.289L5972.39 370.148C5982.93 358.494 5997.9 351.844 6013.61 351.844H6435.5C6466.18 351.844 6491.05 376.717 6491.05 407.399V740.724C6491.05 771.406 6466.18 796.279 6435.5 796.279H6010.88C5996.78 796.279 5983.21 790.917 5972.92 781.28L5887.84 701.635C5876.62 691.131 5870.26 676.448 5870.26 661.079V504.54C5870.26 490.775 5875.37 477.501 5884.6 467.289ZM5961.53 624.563C5981.7 624.563 5998.05 606.474 5998.05 584.16C5998.05 561.846 5981.7 543.757 5961.53 543.757C5941.36 543.757 5925.01 561.846 5925.01 584.16C5925.01 606.474 5941.36 624.563 5961.53 624.563Z" fill="#181C14"/>
<path d="M5972.39 370.148L5965.53 363.939V363.939L5972.39 370.148ZM5884.6 467.289L5877.73 461.08H5877.73L5884.6 467.289ZM5972.92 781.28L5966.59 788.039V788.039L5972.92 781.28ZM5887.84 701.635L5894.17 694.875H5894.17L5887.84 701.635ZM5972.39 370.148L5965.53 363.939L5877.73 461.08L5884.6 467.289L5891.46 473.497L5979.26 376.356L5972.39 370.148ZM6013.61 351.844V342.585C5995.28 342.585 5977.81 350.343 5965.53 363.939L5972.39 370.148L5979.26 376.356C5988.04 366.645 6000.52 361.103 6013.61 361.103V351.844ZM6435.5 351.844V342.585H6013.61V351.844V361.103H6435.5V351.844ZM6491.05 407.399H6500.31C6500.31 371.603 6471.29 342.585 6435.5 342.585V351.844V361.103C6461.07 361.103 6481.79 381.83 6481.79 407.399H6491.05ZM6491.05 740.724H6500.31V407.399H6491.05H6481.79V740.724H6491.05ZM6435.5 796.279V805.538C6471.29 805.538 6500.31 776.52 6500.31 740.724H6491.05H6481.79C6481.79 766.293 6461.07 787.02 6435.5 787.02V796.279ZM6010.88 796.279V805.538H6435.5V796.279V787.02H6010.88V796.279ZM5972.92 781.28L5966.59 788.039C5978.6 799.282 5994.43 805.538 6010.88 805.538V796.279V787.02C5999.13 787.02 5987.82 782.551 5979.24 774.521L5972.92 781.28ZM5887.84 701.635L5881.51 708.394L5966.59 788.039L5972.92 781.28L5979.24 774.521L5894.17 694.875L5887.84 701.635ZM5870.26 661.079H5861C5861 679.01 5868.42 696.139 5881.51 708.394L5887.84 701.635L5894.17 694.875C5884.82 686.122 5879.51 673.887 5879.51 661.079H5870.26ZM5870.26 504.54H5861V661.079H5870.26H5879.51V504.54H5870.26ZM5884.6 467.289L5877.73 461.08C5866.96 472.994 5861 488.481 5861 504.54H5870.26H5879.51C5879.51 493.069 5883.77 482.007 5891.46 473.497L5884.6 467.289ZM5998.05 584.16H5988.79C5988.79 602.264 5975.73 615.304 5961.53 615.304V624.563V633.822C5987.67 633.822 6007.31 610.685 6007.31 584.16H5998.05ZM5961.53 543.757V553.016C5975.73 553.016 5988.79 566.057 5988.79 584.16H5998.05H6007.31C6007.31 557.636 5987.67 534.498 5961.53 534.498V543.757ZM5925.01 584.16H5934.27C5934.27 566.057 5947.33 553.016 5961.53 553.016V543.757V534.498C5935.39 534.498 5915.75 557.636 5915.75 584.16H5925.01ZM5961.53 624.563V615.304C5947.33 615.304 5934.27 602.264 5934.27 584.16H5925.01H5915.75C5915.75 610.685 5935.39 633.822 5961.53 633.822V624.563Z" fill="black"/>
</svg>
